<svg width="319.203" height="70.801" viewBox="0 0 319.203 70.801">
   <g stroke-linecap="round" fill-rule="evenodd" font-size="9pt" stroke="#2c3e50" stroke-width="0.25mm" fill="#2c3e50">
      <path d="M 127.001 35.9 L 127.001 70 L 117.701 70 L 117.701 35.8 A 13.005 13.005 0 0 0 117.478 33.32 Q 117.068 31.209 115.901 29.75 A 5.924 5.924 0 0 0 113.789 28.045 Q 112.628 27.5 111.201 27.5 L 106.001 27.5 Q 102.201 27.5 99.651 30.15 A 11.106 11.106 0 0 0 97.367 33.748 Q 96.79 35.183 96.483 36.903 A 19.82 19.82 0 0 0 96.401 37.4 L 96.401 70 L 87.001 70 L 87.001 36.2 Q 87.001 32.1 85.351 29.8 Q 83.701 27.5 80.901 27.5 L 75.801 27.5 A 8.134 8.134 0 0 0 70.147 29.771 A 11.566 11.566 0 0 0 69.201 30.75 A 13.896 13.896 0 0 0 66.665 35.193 Q 65.996 37.064 65.701 39.3 L 65.701 70 L 56.401 70 L 56.401 20.1 L 65.301 20.1 L 65.301 26.8 A 17.79 17.79 0 0 1 67.772 23.42 A 14.786 14.786 0 0 1 70.251 21.3 A 12.223 12.223 0 0 1 73.049 19.864 A 9.735 9.735 0 0 1 76.301 19.3 L 82.101 19.3 Q 86.101 19.3 89.051 21.3 A 12.707 12.707 0 0 1 92.646 25.053 A 16.25 16.25 0 0 1 93.701 27 A 18.261 18.261 0 0 1 95.983 23.844 A 14.205 14.205 0 0 1 99.101 21.25 Q 102.301 19.3 106.001 19.3 L 111.901 19.3 A 17.279 17.279 0 0 1 116.819 19.966 A 13.222 13.222 0 0 1 122.901 23.75 Q 126.797 27.978 126.991 35.141 A 28.028 28.028 0 0 1 127.001 35.9 Z M 221.701 54.6 L 230.801 54.6 Q 230.801 58.3 233.201 60.6 Q 235.601 62.9 239.601 62.9 L 248.401 62.9 A 16.257 16.257 0 0 0 250.836 62.729 Q 252.116 62.534 253.168 62.12 A 7.967 7.967 0 0 0 254.501 61.45 A 5.717 5.717 0 0 0 255.763 60.396 A 4.103 4.103 0 0 0 256.801 57.6 L 256.801 54.7 A 3.599 3.599 0 0 0 255.948 52.377 A 5.111 5.111 0 0 0 255.451 51.85 Q 254.101 50.6 252.001 50.2 L 234.701 47.2 A 20.644 20.644 0 0 1 230.523 46.003 A 14.747 14.747 0 0 1 225.901 43.05 A 11.168 11.168 0 0 1 223.66 40.121 A 9.463 9.463 0 0 1 222.601 35.7 L 222.601 32.4 A 11.925 11.925 0 0 1 223.668 27.299 Q 224.786 24.902 227.073 23.078 A 14.752 14.752 0 0 1 227.301 22.9 A 16.397 16.397 0 0 1 232.999 20.145 Q 235.305 19.511 238.034 19.353 A 32.224 32.224 0 0 1 239.901 19.3 L 248.301 19.3 A 22.271 22.271 0 0 1 253.499 19.874 A 15.41 15.41 0 0 1 260.351 23.4 A 13.547 13.547 0 0 1 264.821 32.541 A 18.826 18.826 0 0 1 264.901 34.3 L 255.801 34.3 A 8.415 8.415 0 0 0 255.398 31.906 A 6.623 6.623 0 0 0 253.651 29.15 Q 251.601 27.2 248.301 27.2 L 240.001 27.2 Q 236.301 27.2 234.151 28.7 Q 232.006 30.196 232.001 32.688 A 5.777 5.777 0 0 0 232.001 32.7 L 232.001 35.2 A 3.406 3.406 0 0 0 232.89 37.496 A 4.928 4.928 0 0 0 233.401 38 A 7.246 7.246 0 0 0 235.287 39.154 A 10.003 10.003 0 0 0 237.001 39.7 L 254.501 42.8 A 18.569 18.569 0 0 1 258.779 44.053 A 14.241 14.241 0 0 1 262.951 46.8 A 11.085 11.085 0 0 1 265.115 49.594 A 9.217 9.217 0 0 1 266.201 54 L 266.201 57.9 A 10.809 10.809 0 0 1 262.582 66.207 A 14.271 14.271 0 0 1 261.301 67.25 Q 256.994 70.37 250.293 70.748 A 33.618 33.618 0 0 1 248.401 70.8 L 239.601 70.8 A 23.926 23.926 0 0 1 234.003 70.181 A 16.555 16.555 0 0 1 226.601 66.35 A 14.71 14.71 0 0 1 221.777 56.38 A 20.261 20.261 0 0 1 221.701 54.6 Z M 274.701 54.6 L 283.801 54.6 Q 283.801 58.3 286.201 60.6 Q 288.601 62.9 292.601 62.9 L 301.401 62.9 A 16.257 16.257 0 0 0 303.836 62.729 Q 305.116 62.534 306.168 62.12 A 7.967 7.967 0 0 0 307.501 61.45 A 5.717 5.717 0 0 0 308.763 60.396 A 4.103 4.103 0 0 0 309.801 57.6 L 309.801 54.7 A 3.599 3.599 0 0 0 308.948 52.377 A 5.111 5.111 0 0 0 308.451 51.85 Q 307.101 50.6 305.001 50.2 L 287.701 47.2 A 20.644 20.644 0 0 1 283.523 46.003 A 14.747 14.747 0 0 1 278.901 43.05 A 11.168 11.168 0 0 1 276.66 40.121 A 9.463 9.463 0 0 1 275.601 35.7 L 275.601 32.4 A 11.925 11.925 0 0 1 276.668 27.299 Q 277.786 24.902 280.073 23.078 A 14.752 14.752 0 0 1 280.301 22.9 A 16.397 16.397 0 0 1 285.999 20.145 Q 288.305 19.511 291.034 19.353 A 32.224 32.224 0 0 1 292.901 19.3 L 301.301 19.3 A 22.271 22.271 0 0 1 306.499 19.874 A 15.41 15.41 0 0 1 313.351 23.4 A 13.547 13.547 0 0 1 317.821 32.541 A 18.826 18.826 0 0 1 317.901 34.3 L 308.801 34.3 A 8.415 8.415 0 0 0 308.398 31.906 A 6.623 6.623 0 0 0 306.651 29.15 Q 304.601 27.2 301.301 27.2 L 293.001 27.2 Q 289.301 27.2 287.151 28.7 Q 285.006 30.196 285.001 32.688 A 5.777 5.777 0 0 0 285.001 32.7 L 285.001 35.2 A 3.406 3.406 0 0 0 285.89 37.496 A 4.928 4.928 0 0 0 286.401 38 A 7.246 7.246 0 0 0 288.287 39.154 A 10.003 10.003 0 0 0 290.001 39.7 L 307.501 42.8 A 18.569 18.569 0 0 1 311.779 44.053 A 14.241 14.241 0 0 1 315.951 46.8 A 11.085 11.085 0 0 1 318.115 49.594 A 9.217 9.217 0 0 1 319.201 54 L 319.201 57.9 A 10.809 10.809 0 0 1 315.582 66.207 A 14.271 14.271 0 0 1 314.301 67.25 Q 309.994 70.37 303.293 70.748 A 33.618 33.618 0 0 1 301.401 70.8 L 292.601 70.8 A 23.926 23.926 0 0 1 287.003 70.181 A 16.555 16.555 0 0 1 279.601 66.35 A 14.71 14.71 0 0 1 274.777 56.38 A 20.261 20.261 0 0 1 274.701 54.6 Z M 0.001 52.1 L 0.001 38.7 A 23.969 23.969 0 0 1 0.739 32.592 A 17.44 17.44 0 0 1 5.251 24.6 A 17.615 17.615 0 0 1 15.499 19.554 A 24.698 24.698 0 0 1 19.101 19.3 L 27.201 19.3 Q 35.401 19.3 40.401 23.9 A 15.231 15.231 0 0 1 45.279 33.798 A 21.132 21.132 0 0 1 45.401 36.1 L 36.201 36.1 A 10.052 10.052 0 0 0 35.831 33.303 A 7.634 7.634 0 0 0 33.751 29.85 A 8.241 8.241 0 0 0 29.602 27.729 A 11.956 11.956 0 0 0 27.201 27.5 L 19.201 27.5 A 9.999 9.999 0 0 0 15.667 28.103 A 8.905 8.905 0 0 0 12.051 30.65 Q 9.301 33.8 9.301 39 L 9.301 51.8 A 13.902 13.902 0 0 0 9.695 55.201 A 9.823 9.823 0 0 0 12.101 59.65 A 9.343 9.343 0 0 0 18.623 62.582 A 12.589 12.589 0 0 0 19.301 62.6 L 27.301 62.6 A 9.682 9.682 0 0 0 30.496 62.094 A 8.196 8.196 0 0 0 34.051 59.65 A 10.103 10.103 0 0 0 36.212 55.331 Q 36.601 53.714 36.601 51.8 L 45.801 51.8 A 23.071 23.071 0 0 1 45.023 57.945 A 17.338 17.338 0 0 1 40.701 65.55 A 17.059 17.059 0 0 1 30.301 70.615 A 23.65 23.65 0 0 1 27.301 70.8 L 19.201 70.8 A 23.365 23.365 0 0 1 12.986 70.014 A 17.5 17.5 0 0 1 5.301 65.65 A 17.238 17.238 0 0 1 0.187 55.137 A 23.984 23.984 0 0 1 0.001 52.1 Z M 166.101 52.5 L 166.101 38.7 A 23.454 23.454 0 0 1 166.885 32.475 A 17.342 17.342 0 0 1 171.451 24.6 A 17.981 17.981 0 0 1 181.416 19.631 A 25.401 25.401 0 0 1 185.601 19.3 L 193.801 19.3 Q 202.301 19.3 207.501 24.5 Q 212.701 29.7 212.701 38.3 L 212.701 47.7 L 175.401 47.7 L 175.401 52.5 A 12.26 12.26 0 0 0 175.824 55.804 A 9.179 9.179 0 0 0 178.201 59.9 A 9.405 9.405 0 0 0 183.541 62.546 A 13.252 13.252 0 0 0 185.601 62.7 L 193.301 62.7 A 14.086 14.086 0 0 0 196.437 62.37 A 9.733 9.733 0 0 0 200.601 60.35 A 7.63 7.63 0 0 0 203.38 54.759 A 10.334 10.334 0 0 0 203.401 54.1 L 212.501 54.1 A 17.21 17.21 0 0 1 211.558 59.912 A 14.819 14.819 0 0 1 207.201 66.2 Q 201.916 70.787 193.252 70.8 A 32.755 32.755 0 0 1 193.201 70.8 L 185.601 70.8 A 24.955 24.955 0 0 1 179.486 70.09 A 17.843 17.843 0 0 1 171.451 65.75 A 16.825 16.825 0 0 1 166.213 54.805 A 23.193 23.193 0 0 1 166.101 52.5 Z M 140.401 55.8 L 140.401 0 L 149.701 0 L 149.701 55.5 Q 149.701 58.9 151.101 60.4 Q 152.144 61.518 154.187 61.803 A 10.989 10.989 0 0 0 155.701 61.9 L 159.701 61.9 L 159.701 70 L 155.301 70 Q 147.62 70 144.099 66.834 A 8.661 8.661 0 0 1 143.901 66.65 Q 140.401 63.3 140.401 55.8 Z M 175.401 40.3 L 203.401 40.3 L 203.401 38.3 Q 203.401 33.7 201.158 30.793 A 9.625 9.625 0 0 0 200.751 30.3 A 8.711 8.711 0 0 0 194.397 27.315 A 11.847 11.847 0 0 0 193.801 27.3 L 185.601 27.3 Q 181.001 27.3 178.201 30.45 A 10.759 10.759 0 0 0 175.762 35.327 A 15.778 15.778 0 0 0 175.401 38.8 L 175.401 40.3 Z" vector-effect="non-scaling-stroke" />
   </g>
</svg>
